# xmcd
# 
# Track frame offsets:
#     150
#     15021
#     61364
#     100110
#     120099
#     158618
#     193601
#     214912
# 
# Disc length: 3394
# 
# Revision: 1
# Processed by: cddbd v1.5.2PL0 Copyright (c) Steve Scherf et al.
# Submitted via: fre:ac v1.0.27
# 
DISCID=550d4008
DTITLE=Doug Cox and Salil Bhatt - Slide to Freedom
DYEAR=0
DGENRE=World Folk-influenced Blues
TTITLE0=Pay Day
TTITLE1=Bhoopali Dance
TTITLE2=Arabian Night
TTITLE3=Soul of a Man
TTITLE4=Fish Pond
TTITLE5=Father Kirwani
TTITLE6=Beware of the Man
TTITLE7=Meeting by the Liver
EXTD=
EXTT0=
EXTT1=
EXTT2=
EXTT3=
EXTT4=
EXTT5=
EXTT6=
EXTT7=
PLAYORDER=
